<svg xmlns="http://www.w3.org/2000/svg" viewBox="0 0 800 600" role="img" aria-label="Landscape poster artwork"><rect width="800" height="600" fill="#f3c979"/><circle cx="606" cy="158" r="72" fill="#fff2c6"/><path d="M0 276c101-92 188-127 261-105 55 17 95 61 119 133 62-74 127-104 195-89 72 16 147 74 225 174v211H0z" fill="#3e7292"/><path d="M0 392c125-82 237-100 337-55 93 42 176 37 248-16 62-46 134-50 215-12v291H0z" fill="#1f766f"/><path d="M0 474c154-58 290-62 408-13 118 50 249 43 392-20v159H0z" fill="#5c7c4d"/><path d="M214 500c60-63 120-95 181-95s121 32 181 95z" fill="#f7eddf" opacity=".78"/></svg>