<svg xmlns="http://www.w3.org/2000/svg" viewBox="0 0 800 600" role="img" aria-label="Pet portrait artwork"><rect width="800" height="600" fill="#efe3d2"/><path d="M0 405c105-62 196-72 273-28 74 42 147 45 218 8 108-56 211-47 309 27v188H0z" fill="#8cae72"/><circle cx="394" cy="285" r="158" fill="#d7a662"/><path d="M250 237c-47-73-62-133-45-179 70 11 119 54 149 128z" fill="#8d5b3e"/><path d="M537 239c46-75 61-135 44-181-69 11-118 54-148 128z" fill="#8d5b3e"/><circle cx="342" cy="278" r="18" fill="#17201d"/><circle cx="448" cy="278" r="18" fill="#17201d"/><path d="M395 307c26 0 45 15 45 33 0 27-25 54-45 54s-45-27-45-54c0-18 20-33 45-33z" fill="#5b372c"/><path d="M336 386c37 31 80 31 118 0" fill="none" stroke="#fff5e6" stroke-width="16" stroke-linecap="round"/><circle cx="206" cy="112" r="56" fill="#f5cc72"/><rect x="116" y="474" width="568" height="58" rx="29" fill="#fff8eb" opacity=".9"/></svg>