<svg xmlns="http://www.w3.org/2000/svg" viewBox="0 0 800 600" role="img" aria-label="Fantasy dragon artwork"><rect width="800" height="600" fill="#293044"/><circle cx="636" cy="130" r="82" fill="#f6d27c"/><path d="M0 430 144 286l116 90 102-140 129 164 98-96 211 151v145H0z" fill="#5d6f57"/><path d="M156 410c124-113 243-154 356-122 83 24 134 79 154 166-125 24-258 29-397 16-58-5-96-25-113-60z" fill="#1f766f"/><path d="M273 313c55-123 130-190 225-201-18 91-8 153 29 187-83-9-167-4-254 14z" fill="#6b5474"/><path d="M430 251c63-76 131-116 205-120-14 76-52 132-116 169z" fill="#dc5a43"/><circle cx="590" cy="353" r="14" fill="#f6d27c"/><path d="M611 375c37 11 77 35 119 71-63 8-120-3-170-33z" fill="#dc5a43"/><path d="M249 429c-55 22-110 27-166 15 59-37 114-59 166-66z" fill="#f6d27c"/></svg>