<svg xmlns="http://www.w3.org/2000/svg" viewBox="0 0 800 600" role="img" aria-label="VTuber emote artwork"><rect width="800" height="600" fill="#241f32"/><path d="M0 445c139-44 267-40 385 12 109 49 247 47 415-5v148H0z" fill="#1f766f"/><circle cx="406" cy="268" r="148" fill="#fbe3d2"/><path d="M275 240c36-115 138-167 243-123 88 37 122 112 102 225-46-67-104-92-174-74-80 20-137 11-171-28z" fill="#3e7292"/><path d="M273 212c-33-58-36-110-10-156 50 21 86 61 109 120z" fill="#dc5a43"/><path d="M531 210c33-57 37-108 11-154-50 21-87 61-110 119z" fill="#f2c261"/><circle cx="355" cy="286" r="17" fill="#17201d"/><circle cx="458" cy="286" r="17" fill="#17201d"/><path d="M366 356c30 23 61 23 92 0" fill="none" stroke="#dc5a43" stroke-width="12" stroke-linecap="round"/><circle cx="188" cy="162" r="32" fill="#f2c261"/><circle cx="620" cy="126" r="24" fill="#dc5a43"/><circle cx="648" cy="432" r="36" fill="#f2c261"/></svg>