<svg xmlns="http://www.w3.org/2000/svg" viewBox="0 0 800 600" role="img" aria-label="Anime character artwork"><rect width="800" height="600" fill="#f3dfc8"/><circle cx="624" cy="118" r="84" fill="#f1c75c"/><path d="M0 418c130-70 219-63 316 22 90 79 182 84 306 14 65-37 124-46 178-27v173H0z" fill="#1f766f"/><path d="M313 158c58-100 182-100 239 0 52 92 25 232-79 285-75 39-171 10-211-66-39-75 2-158 51-219z" fill="#dc5a43"/><circle cx="406" cy="268" r="116" fill="#fde8d1"/><path d="M300 248c29-102 171-141 253-42 19 62 3 112-49 151-11-58-52-86-124-84-36 1-62-8-80-25z" fill="#60456f"/><circle cx="367" cy="281" r="11" fill="#17201d"/><circle cx="448" cy="281" r="11" fill="#17201d"/><path d="M374 340c27 18 55 18 84 0" fill="none" stroke="#17201d" stroke-width="12" stroke-linecap="round"/><path d="M232 514c39-92 98-138 176-138 81 0 144 46 190 138z" fill="#3e7292"/></svg>