<svg xmlns="http://www.w3.org/2000/svg" viewBox="0 0 900 560" role="img" aria-label="Marketplace artwork and commission cards"><rect width="900" height="560" fill="#d9b06a"/><path d="M0 392h900v168H0z" fill="#63506d"/><path d="M0 0h900v118H0z" fill="#2d756c"/><circle cx="742" cy="92" r="70" fill="#f5e1b8" opacity=".9"/><rect x="70" y="96" width="230" height="302" rx="12" fill="#fff8eb" stroke="#2a2a24" stroke-width="8"/><rect x="92" y="120" width="186" height="168" rx="8" fill="#e8664f"/><circle cx="178" cy="192" r="48" fill="#f4ce77"/><path d="M96 286c42-66 78-82 114-47 24 24 44 23 67-4v53H96z" fill="#2d756c"/><rect x="104" y="318" width="120" height="14" rx="7" fill="#d6cab8"/><rect x="104" y="348" width="156" height="14" rx="7" fill="#d6cab8"/><rect x="368" y="70" width="246" height="360" rx="18" fill="#fdf8ef" stroke="#2a2a24" stroke-width="8"/><path d="M402 124h178v220H402z" fill="#1f766f"/><path d="M402 304c70-90 129-90 178 0v40H402z" fill="#f2c261"/><circle cx="492" cy="214" r="66" fill="#f7eee0"/><path d="M446 210c22-58 71-67 102-12 15 28 11 61-10 86-26-19-53-20-82-2-20-21-25-45-10-72z" fill="#dc5a43"/><rect x="414" y="374" width="112" height="16" rx="8" fill="#c9bba8"/><rect x="414" y="402" width="154" height="16" rx="8" fill="#c9bba8"/><rect x="660" y="165" width="170" height="230" rx="12" fill="#fff8eb" stroke="#2a2a24" stroke-width="8"/><path d="M690 198h110v70H690z" fill="#3e7292"/><path d="M690 268c32-34 65-33 110 0v28H690z" fill="#79a45e"/><circle cx="732" cy="232" r="22" fill="#f7d27b"/><rect x="690" y="326" width="92" height="13" rx="7" fill="#d6cab8"/><rect x="690" y="352" width="118" height="13" rx="7" fill="#d6cab8"/><rect x="137" y="426" width="318" height="88" rx="14" fill="#fff8eb" stroke="#2a2a24" stroke-width="6"/><circle cx="184" cy="470" r="26" fill="#dc5a43"/><rect x="226" y="446" width="132" height="14" rx="7" fill="#2d756c"/><rect x="226" y="474" width="184" height="14" rx="7" fill="#c9bba8"/><rect x="516" y="442" width="244" height="58" rx="12" fill="#17201d"/><rect x="542" y="462" width="80" height="16" rx="8" fill="#f4ce77"/><rect x="642" y="462" width="82" height="16" rx="8" fill="#fff8eb"/></svg>